<svg width="26" height="26" viewBox="0 0 26 26" fill="none" xmlns="http://www.w3.org/2000/svg">
<path d="M9 1C9.82969 1 10.5 1.67031 10.5 2.5V4H16.5V2.5C16.5 1.67031 17.1703 1 18 1C18.8297 1 19.5 1.67031 19.5 2.5V4H21.75C22.9922 4 24 5.00781 24 6.25V8.5H3V6.25C3 5.00781 4.00781 4 5.25 4H7.5V2.5C7.5 1.67031 8.17031 1 9 1ZM3 10H24V22.75C24 23.9922 22.9922 25 21.75 25H5.25C4.00781 25 3 23.9922 3 22.75V10ZM6.75 13C6.3375 13 6 13.3375 6 13.75V18.25C6 18.6625 6.3375 19 6.75 19H11.25C11.6625 19 12 18.6625 12 18.25V13.75C12 13.3375 11.6625 13 11.25 13H6.75Z" fill="#061554"/>
</svg>
