<svg width="26" height="26" viewBox="0 0 26 26" fill="none" xmlns="http://www.w3.org/2000/svg">
<path d="M9 1C9.82969 1 10.5 1.67031 10.5 2.5V4H16.5V2.5C16.5 1.67031 17.1703 1 18 1C18.8297 1 19.5 1.67031 19.5 2.5V4H21.75C22.9922 4 24 5.00781 24 6.25V8.5H3V6.25C3 5.00781 4.00781 4 5.25 4H7.5V2.5C7.5 1.67031 8.17031 1 9 1ZM3 10H24V22.75C24 23.9922 22.9922 25 21.75 25H5.25C4.00781 25 3 23.9922 3 22.75V10ZM6 13.75V15.25C6 15.6625 6.3375 16 6.75 16H8.25C8.6625 16 9 15.6625 9 15.25V13.75C9 13.3375 8.6625 13 8.25 13H6.75C6.3375 13 6 13.3375 6 13.75ZM12 13.75V15.25C12 15.6625 12.3375 16 12.75 16H14.25C14.6625 16 15 15.6625 15 15.25V13.75C15 13.3375 14.6625 13 14.25 13H12.75C12.3375 13 12 13.3375 12 13.75ZM18.75 13C18.3375 13 18 13.3375 18 13.75V15.25C18 15.6625 18.3375 16 18.75 16H20.25C20.6625 16 21 15.6625 21 15.25V13.75C21 13.3375 20.6625 13 20.25 13H18.75ZM6 19.75V21.25C6 21.6625 6.3375 22 6.75 22H8.25C8.6625 22 9 21.6625 9 21.25V19.75C9 19.3375 8.6625 19 8.25 19H6.75C6.3375 19 6 19.3375 6 19.75ZM12.75 19C12.3375 19 12 19.3375 12 19.75V21.25C12 21.6625 12.3375 22 12.75 22H14.25C14.6625 22 15 21.6625 15 21.25V19.75C15 19.3375 14.6625 19 14.25 19H12.75ZM18 19.75V21.25C18 21.6625 18.3375 22 18.75 22H20.25C20.6625 22 21 21.6625 21 21.25V19.75C21 19.3375 20.6625 19 20.25 19H18.75C18.3375 19 18 19.3375 18 19.75Z" fill="#061554"/>
</svg>
