<svg width="32" height="32" viewBox="0 0 32 32" fill="none" xmlns="http://www.w3.org/2000/svg">
<path d="M13.5199 24.6602C12.7245 24.6595 11.962 24.343 11.3999 23.7802L5.74992 18.1202C5.18812 17.5577 4.87256 16.7952 4.87256 16.0002C4.87256 15.2052 5.18812 14.4427 5.74992 13.8802L6.44992 13.1702C6.72863 12.8905 7.05981 12.6686 7.42446 12.5172C7.78912 12.3658 8.18008 12.2879 8.57492 12.2879C8.96976 12.2879 9.36072 12.3658 9.72538 12.5172C10.09 12.6686 10.4212 12.8905 10.6999 13.1702L13.5199 16.0002L21.2999 8.22022C21.8739 7.67655 22.6344 7.37354 23.4249 7.37354C24.2155 7.37354 24.976 7.67655 25.5499 8.22022L26.2499 8.93022C26.8117 9.49272 27.1273 10.2552 27.1273 11.0502C27.1273 11.8452 26.8117 12.6077 26.2499 13.1702L15.6499 23.7802C15.3704 24.0601 15.0383 24.2819 14.6728 24.4329C14.3072 24.5839 13.9154 24.6612 13.5199 24.6602ZM8.57992 14.2902C8.44761 14.2908 8.31673 14.3176 8.19485 14.3691C8.07298 14.4206 7.96253 14.4957 7.86992 14.5902L7.15992 15.2902C7.06619 15.3832 6.9918 15.4938 6.94103 15.6156C6.89026 15.7375 6.86412 15.8682 6.86412 16.0002C6.86412 16.1322 6.89026 16.2629 6.94103 16.3848C6.9918 16.5067 7.06619 16.6173 7.15992 16.7102L12.8199 22.3602C13.0073 22.5465 13.2607 22.651 13.5249 22.651C13.7891 22.651 14.0426 22.5465 14.2299 22.3602L24.8399 11.7602C24.9336 11.6673 25.008 11.5567 25.0588 11.4348C25.1096 11.3129 25.1357 11.1822 25.1357 11.0502C25.1357 10.9182 25.1096 10.7875 25.0588 10.6656C25.008 10.5438 24.9336 10.4332 24.8399 10.3402L24.1299 9.64022C23.9426 9.45397 23.6891 9.34942 23.4249 9.34942C23.1607 9.34942 22.9073 9.45397 22.7199 9.64022L14.2299 18.1202C14.0426 18.3065 13.7891 18.411 13.5249 18.411C13.2607 18.411 13.0073 18.3065 12.8199 18.1202L9.27992 14.5902C9.09529 14.4018 8.84369 14.294 8.57992 14.2902Z" fill="#061554"/>
</svg>
