<svg width="1644" height="497" viewBox="0 0 1644 497" fill="none" xmlns="http://www.w3.org/2000/svg">
<path d="M1616.91 327.464C1605.31 313.929 1591.58 304.165 1575.72 298.168C1559.86 292.173 1539.56 286.273 1514.81 280.472C1491.99 275.452 1475.26 270.421 1464.63 265.389C1453.99 260.368 1448.67 252.827 1448.67 242.764C1448.67 233.873 1451.58 227.012 1457.38 222.171C1463.18 217.34 1471.68 214.92 1482.9 214.92C1497.2 214.92 1509.1 218.689 1518.58 226.231C1528.05 233.772 1534.14 244.125 1536.85 257.267H1629.67C1623.48 223.621 1608.11 196.556 1583.55 176.052C1558.99 155.557 1526.21 145.305 1485.22 145.305C1445 145.305 1413.87 154.296 1391.82 172.281C1369.78 190.265 1358.76 213.76 1358.76 242.764C1358.76 265.2 1364.36 282.892 1375.58 295.845C1386.79 308.808 1400.14 318.18 1415.61 323.981C1431.07 329.784 1450.8 335.204 1474.78 340.225C1498.76 345.645 1516.06 350.767 1526.7 355.599C1537.33 360.439 1542.65 368.46 1542.65 379.673C1542.65 388.185 1539.75 395.047 1533.95 400.268C1528.15 405.488 1519.64 408.1 1508.43 408.1C1492.18 408.1 1478.93 404.428 1468.69 397.076C1458.44 389.736 1452.54 379.093 1451 365.169H1355.28C1361.08 401.139 1377.12 428.793 1403.43 448.128C1429.72 467.469 1464.72 477.135 1508.43 477.135C1534.33 477.135 1556.77 473.072 1575.72 464.951C1594.67 456.829 1609.17 445.616 1619.23 431.304C1629.28 417 1634.31 400.559 1634.31 381.993C1634.31 359.179 1628.51 341.004 1616.91 327.464Z" fill="white"/>
<path d="M1199.23 321.082C1199.23 344.675 1193.43 362.85 1181.83 375.613C1170.23 388.374 1154.36 394.757 1134.26 394.757C1114.92 394.757 1099.54 388.665 1088.14 376.483C1076.73 364.299 1071.03 347.186 1071.03 325.142V149.367H972.406V337.325C972.406 380.643 983.329 414.681 1005.18 439.426C1027.03 464.179 1056.53 476.551 1093.65 476.551C1118.02 476.551 1139.38 470.951 1157.76 459.729C1176.12 448.515 1189.95 433.435 1199.23 414.481V473.073H1299.01V149.367H1199.23V321.082Z" fill="white"/>
<path d="M764.725 230.583C779.417 230.583 791.601 234.453 801.273 242.184C810.936 249.927 817.316 260.749 820.416 274.672H925.417C918.067 234.453 900.273 202.836 872.048 179.821C843.811 156.817 808.813 145.305 767.045 145.305C735.331 145.305 707.093 151.976 682.347 165.32C657.595 178.661 638.351 197.807 624.627 222.751C610.895 247.696 604.032 277.191 604.032 311.219C604.032 344.867 610.993 374.261 624.916 399.399C638.84 424.541 658.073 443.776 682.637 457.119C707.193 470.463 735.331 477.135 767.045 477.135C808.813 477.135 843.811 465.631 872.048 442.616C900.273 419.609 918.067 387.993 925.417 347.767H820.416C817.316 361.691 810.936 372.521 801.273 380.253C791.601 387.993 779.417 391.856 764.725 391.856C747.323 391.856 733.008 384.993 721.795 371.261C710.575 357.54 704.972 337.524 704.972 311.219C704.972 284.923 710.575 264.909 721.795 251.177C733.008 237.453 747.323 230.583 764.725 230.583Z" fill="white"/>
<g clip-path="url(#clip0_201_200)">
<path d="M321.229 311.217C321.229 355.413 357.081 391.265 401.277 391.265C445.498 391.265 481.35 355.413 481.35 311.217" fill="#FBB03B"/>
<path d="M443.928 150.861V105.277C443.928 58.18 405.748 20 358.651 20V20.5787C358.651 20.5787 265.998 22.024 206.66 20.5787C206.66 20.5787 195.056 20 185.775 20C141.296 20 107.357 30.932 83.964 52.776C60.56 74.6307 48.868 105.668 48.868 145.885V168.741H10V252.276H48.868V473.072H148.067V252.276H206.66V168.741H148.067C148.124 167.575 148.201 147.06 148.296 145.943C149.468 132.235 153.452 122.155 160.249 115.719C167.592 108.757 179.392 105.277 195.636 105.277L206.66 105.857H358.651V150.857C287.68 169.675 235.364 234.325 235.364 311.216H321.228C321.228 267.02 357.081 231.168 401.277 231.168C445.497 231.168 481.349 267.02 481.349 311.216H567.213C567.213 234.331 514.905 169.684 443.928 150.861Z" fill="white"/>
</g>
<defs>
<clipPath id="clip0_201_200">
<rect width="557" height="453" fill="white" transform="translate(10 20)"/>
</clipPath>
</defs>
</svg>
