<svg width="512" height="512" viewBox="0 0 512 512" fill="none" xmlns="http://www.w3.org/2000/svg">
<g clip-path="url(#clip0_806_207)">
<path d="M283.029 309.502C283.029 346.001 312.637 375.61 349.137 375.61C385.657 375.61 415.266 346.001 415.266 309.502" fill="#FBB03B"/>
<path d="M384.361 177.072V139.427C384.361 100.531 352.83 69.0001 313.934 69.0001V69.478C313.934 69.478 237.417 70.6717 188.412 69.478C188.412 69.478 178.829 69.0001 171.164 69.0001C134.431 69.0001 106.403 78.0283 87.0834 96.0683C67.7551 114.117 58.0992 139.749 58.0992 172.963V191.839H26V260.826H58.0992V443.171H140.023V260.826H188.412V191.839H140.023C140.07 190.875 140.134 173.933 140.212 173.01C141.18 161.689 144.47 153.365 150.084 148.05C156.148 142.301 165.893 139.427 179.308 139.427L188.412 139.906H313.934V177.069C255.323 192.609 212.117 246.001 212.117 309.502H283.029C283.029 273.002 312.638 243.394 349.137 243.394C385.657 243.394 415.265 273.002 415.265 309.502H486.176C486.176 246.006 442.977 192.617 384.361 177.072Z" fill="#061554"/>
</g>
<defs>
<clipPath id="clip0_806_207">
<rect width="460" height="374.111" fill="white" transform="translate(26 69)"/>
</clipPath>
</defs>
</svg>
