<svg width="512" height="512" viewBox="0 0 512 512" fill="none" xmlns="http://www.w3.org/2000/svg">
<g clip-path="url(#clip0_805_129)">
<g clip-path="url(#clip1_805_129)">
<path d="M273.628 290.849C273.628 314.653 292.937 333.963 316.741 333.963C340.559 333.963 359.869 314.653 359.869 290.849" fill="#FBB03B"/>
<path d="M339.713 204.482V179.93C339.713 154.564 319.15 134 293.783 134V134.312C293.783 134.312 243.881 135.09 211.921 134.312C211.921 134.312 205.671 134 200.672 134C176.716 134 158.437 139.888 145.837 151.653C133.232 163.424 126.934 180.141 126.934 201.802V214.112H106V259.104H126.934V378.024H180.363V259.104H211.921V214.112H180.363C180.394 213.484 180.435 202.434 180.486 201.833C181.117 194.45 183.263 189.02 186.924 185.554C190.879 181.805 197.234 179.93 205.983 179.93L211.921 180.243H293.783V204.48C255.558 214.615 227.381 249.436 227.381 290.849H273.627C273.627 267.045 292.938 247.735 316.742 247.735C340.559 247.735 359.869 267.045 359.869 290.849H406.115C406.115 249.438 377.942 214.62 339.713 204.482Z" fill="#061554"/>
</g>
</g>
<defs>
<clipPath id="clip0_805_129">
<rect width="512" height="512" fill="white"/>
</clipPath>
<clipPath id="clip1_805_129">
<rect width="300" height="243.986" fill="white" transform="translate(106 134)"/>
</clipPath>
</defs>
</svg>
