<svg width="19" height="19" viewBox="0 0 19 19" fill="none" xmlns="http://www.w3.org/2000/svg">
<path d="M9.5 18.5C14.4711 18.5 18.5 14.4711 18.5 9.5C18.5 4.52891 14.4711 0.5 9.5 0.5C4.52891 0.5 0.5 4.52891 0.5 9.5C0.5 14.4711 4.52891 18.5 9.5 18.5ZM8.65625 12.5938V10.3438H6.40625C5.93867 10.3438 5.5625 9.96758 5.5625 9.5C5.5625 9.03242 5.93867 8.65625 6.40625 8.65625H8.65625V6.40625C8.65625 5.93867 9.03242 5.5625 9.5 5.5625C9.96758 5.5625 10.3438 5.93867 10.3438 6.40625V8.65625H12.5938C13.0613 8.65625 13.4375 9.03242 13.4375 9.5C13.4375 9.96758 13.0613 10.3438 12.5938 10.3438H10.3438V12.5938C10.3438 13.0613 9.96758 13.4375 9.5 13.4375C9.03242 13.4375 8.65625 13.0613 8.65625 12.5938Z" fill="#FBB03B"/>
</svg>
