<svg width="32" height="32" viewBox="0 0 32 32" fill="none" xmlns="http://www.w3.org/2000/svg">
<path d="M8.53333 26H23.4733C24.1441 25.9982 24.7867 25.7306 25.2604 25.2557C25.734 24.7808 26 24.1374 26 23.4667V8.53333C25.9982 7.86199 25.7308 7.21865 25.2561 6.74394C24.7813 6.26923 24.138 6.00176 23.4667 6H8.53333C7.86199 6.00176 7.21865 6.26923 6.74394 6.74394C6.26923 7.21865 6.00176 7.86199 6 8.53333V23.4667C6.00176 24.138 6.26923 24.7813 6.74394 25.2561C7.21865 25.7308 7.86199 25.9982 8.53333 26ZM7.68667 8.53333C7.68667 8.30878 7.77587 8.09343 7.93465 7.93465C8.09343 7.77587 8.30878 7.68667 8.53333 7.68667H23.4667C23.6912 7.68667 23.9066 7.77587 24.0654 7.93465C24.2241 8.09343 24.3133 8.30878 24.3133 8.53333V23.4667C24.3133 23.6912 24.2241 23.9066 24.0654 24.0654C23.9066 24.2241 23.6912 24.3133 23.4667 24.3133H8.53333C8.30878 24.3133 8.09343 24.2241 7.93465 24.0654C7.77587 23.9066 7.68667 23.6912 7.68667 23.4667V8.53333Z" fill="#061554"/>
<path d="M17.4465 21.0465H22.1999C22.4106 21.0278 22.6067 20.9308 22.7495 20.7747C22.8923 20.6187 22.9715 20.4148 22.9715 20.2032C22.9715 19.9917 22.8923 19.7878 22.7495 19.6317C22.6067 19.4756 22.4106 19.3786 22.1999 19.3599H17.4465C17.3295 19.3495 17.2116 19.3635 17.1002 19.4012C16.9889 19.4388 16.8867 19.4992 16.8 19.5786C16.7133 19.6579 16.644 19.7544 16.5967 19.8619C16.5493 19.9695 16.5248 20.0857 16.5248 20.2032C16.5248 20.3207 16.5493 20.437 16.5967 20.5445C16.644 20.652 16.7133 20.7485 16.8 20.8279C16.8867 20.9072 16.9889 20.9676 17.1002 21.0053C17.2116 21.0429 17.3295 21.057 17.4465 21.0465ZM11.2532 13.7932C11.3321 13.8718 11.4257 13.934 11.5287 13.9763C11.6316 14.0186 11.7419 14.0402 11.8532 14.0399C11.9636 14.0408 12.0731 14.0195 12.175 13.9771C12.277 13.9347 12.3693 13.8722 12.4465 13.7932L15.4265 10.8132C15.5045 10.7349 15.5662 10.6419 15.6082 10.5397C15.6502 10.4375 15.6716 10.328 15.6713 10.2175C15.671 10.107 15.649 9.99766 15.6064 9.89569C15.5638 9.79372 15.5016 9.70113 15.4232 9.62321C15.3449 9.54529 15.2519 9.48357 15.1497 9.44157C15.0475 9.39957 14.938 9.37811 14.8275 9.37842C14.717 9.37873 14.6077 9.4008 14.5057 9.44338C14.4037 9.48595 14.3111 9.54819 14.2332 9.62654L11.8532 11.9999L10.5199 10.6665C10.3616 10.511 10.1485 10.4239 9.92655 10.4239C9.70461 10.4239 9.49154 10.511 9.33321 10.6665C9.2544 10.7446 9.19184 10.8376 9.14915 10.94C9.10645 11.0424 9.08447 11.1523 9.08447 11.2632C9.08447 11.3742 9.10645 11.484 9.14915 11.5864C9.19184 11.6888 9.2544 11.7818 9.33321 11.8599L11.2532 13.7932ZM12.3665 17.2465C11.7811 17.2479 11.2092 17.4228 10.7232 17.7491C10.2372 18.0754 9.85881 18.5386 9.63599 19.08C9.41318 19.6213 9.3559 20.2166 9.4714 20.7905C9.58691 21.3645 9.87001 21.8913 10.2849 22.3043C10.6998 22.7173 11.2279 22.998 11.8023 23.111C12.3767 23.2239 12.9718 23.1639 13.5121 22.9387C14.0525 22.7134 14.5139 22.333 14.8381 21.8455C15.1622 21.358 15.3345 20.7853 15.3332 20.1999C15.3332 19.8109 15.2564 19.4258 15.1071 19.0666C14.9579 18.7074 14.7391 18.3812 14.4635 18.1068C14.1878 17.8324 13.8607 17.6151 13.5008 17.4675C13.141 17.3199 12.7555 17.2448 12.3665 17.2465ZM12.3665 21.4732C12.1147 21.4732 11.8685 21.3985 11.6591 21.2586C11.4497 21.1187 11.2865 20.9198 11.1901 20.6872C11.0938 20.4545 11.0685 20.1985 11.1177 19.9515C11.1668 19.7045 11.2881 19.4776 11.4662 19.2995C11.6442 19.1214 11.8711 19.0001 12.1181 18.951C12.3651 18.9019 12.6212 18.9271 12.8538 19.0235C13.0865 19.1198 13.2854 19.2831 13.4253 19.4925C13.5652 19.7019 13.6399 19.948 13.6399 20.1999C13.6381 20.537 13.5034 20.8599 13.265 21.0983C13.0266 21.3367 12.7037 21.4715 12.3665 21.4732ZM17.4465 12.5532H22.1999C22.4106 12.5345 22.6067 12.4375 22.7495 12.2814C22.8923 12.1253 22.9715 11.9214 22.9715 11.7099C22.9715 11.4983 22.8923 11.2944 22.7495 11.1383C22.6067 10.9823 22.4106 10.8853 22.1999 10.8665H17.4465C17.3295 10.8561 17.2116 10.8702 17.1002 10.9078C16.9889 10.9455 16.8867 11.0059 16.8 11.0852C16.7133 11.1645 16.644 11.2611 16.5967 11.3686C16.5493 11.4761 16.5248 11.5924 16.5248 11.7099C16.5248 11.8274 16.5493 11.9436 16.5967 12.0512C16.644 12.1587 16.7133 12.2552 16.8 12.3345C16.8867 12.4139 16.9889 12.4743 17.1002 12.5119C17.2116 12.5496 17.3295 12.5636 17.4465 12.5532Z" fill="#061554"/>
</svg>
