<svg width="512" height="512" viewBox="0 0 512 512" fill="none" xmlns="http://www.w3.org/2000/svg">
<path d="M157.555 382.967C157.555 436.383 201.002 479.714 254.561 479.714C308.15 479.714 351.598 436.383 351.598 382.967" fill="#FBB03B"/>
<path d="M306.248 134.067V189.16C392.262 211.909 455.651 290.042 455.651 382.966H351.597C351.597 329.551 308.15 286.22 254.562 286.22C201.003 286.22 157.554 329.551 157.554 382.966H53.4999C53.4999 290.036 116.899 211.898 202.905 189.155V134.768H102.893C102.893 134.768 56.0176 132.25 56.0176 83.5001C56.0176 34.7501 102.893 31.6994 102.893 31.6994H202.905V31C259.98 31 306.248 77.1447 306.248 134.067Z" fill="#061554"/>
</svg>
