<svg width="512" height="512" viewBox="0 0 512 512" fill="none" xmlns="http://www.w3.org/2000/svg">
<g clip-path="url(#clip0_805_129)">
<g clip-path="url(#clip1_805_129)">
<rect width="512" height="512" fill="#FFE9E1"/>
<path d="M626.481 -133.461C725.254 -110.624 728.799 106.862 641.15 219.051C553.502 331.24 473.698 204.655 377.06 245.987C280.42 287.32 252.789 245.987 235.788 198.556C218.789 151.124 230.221 102.523 268.029 52.1637C305.838 1.80465 324.303 -2.00127 377.06 -26.8876C435.855 -54.624 495.329 -163.786 626.481 -133.461Z" fill="#FFD6CF"/>
<path d="M96.4809 174.539C195.254 197.376 198.799 414.862 111.15 527.051C23.5018 639.24 -56.3023 512.655 -152.94 553.987C-249.58 595.32 -277.211 553.987 -294.212 506.556C-311.211 459.124 -299.779 410.523 -261.971 360.164C-224.162 309.805 -205.697 305.999 -152.94 281.112C-94.1445 253.376 -34.6709 144.214 96.4809 174.539Z" fill="#FFD6CF"/>
<path d="M190.37 340.645C190.37 376.255 219.335 405.143 255.041 405.143C290.767 405.143 319.732 376.255 319.732 340.645" fill="#FBB03B"/>
<path d="M289.499 174.711V211.44C346.841 226.606 389.101 278.695 389.101 340.644H319.731C319.731 305.034 290.767 276.146 255.041 276.146C219.335 276.146 190.369 305.034 190.369 340.644H121C121 278.69 163.266 226.599 220.603 211.437V175.179H153.928C153.928 175.179 122.678 173.5 122.678 141C122.678 108.5 153.928 106.466 153.928 106.466H220.603V106C258.653 106 289.499 136.763 289.499 174.711Z" fill="#061554"/>
</g>
</g>
<defs>
<clipPath id="clip0_805_129">
<rect width="512" height="512" fill="white"/>
</clipPath>
<clipPath id="clip1_805_129">
<rect width="512" height="512" fill="white"/>
</clipPath>
</defs>
</svg>
